<svg xmlns="http://www.w3.org/2000/svg" version="1.1" xmlns:xlink="http://www.w3.org/1999/xlink" viewBox="0 0 200 200"><rect width="200" height="200" fill="url('#gradient')"></rect><defs><linearGradient id="gradient" gradientTransform="rotate(45 0.5 0.5)"><stop offset="0%" stop-color="#736c68"></stop><stop offset="100%" stop-color="#484b47"></stop></linearGradient></defs><g><g fill="#333740" transform="matrix(1.687757531361597,0,0,1.687757531361597,8.941846561447164,111.99589194549374)" stroke="#b79288" stroke-width="0.2"><path d="M8.41-3.78L8.41-3.78Q8.41-4.53 7.88-4.95Q7.34-5.37 6.01-5.82Q4.67-6.27 3.82-6.69L3.82-6.69Q1.05-8.05 1.05-10.42L1.05-10.42Q1.05-11.60 1.74-12.50Q2.43-13.41 3.69-13.91Q4.95-14.41 6.52-14.41L6.52-14.41Q8.06-14.41 9.27-13.87Q10.49-13.32 11.16-12.31Q11.84-11.30 11.84-10L11.84-10L8.42-10Q8.42-10.87 7.89-11.35Q7.35-11.83 6.45-11.83L6.45-11.83Q5.53-11.83 5.00-11.42Q4.46-11.02 4.46-10.39L4.46-10.39Q4.46-9.84 5.05-9.40Q5.63-8.96 7.11-8.48Q8.58-8.01 9.53-7.46L9.53-7.46Q11.84-6.13 11.84-3.80L11.84-3.80Q11.84-1.93 10.43-0.87Q9.02 0.20 6.57 0.20L6.57 0.20Q4.84 0.20 3.44-0.42Q2.04-1.04 1.33-2.12Q0.63-3.20 0.63-4.61L0.63-4.61L4.06-4.61Q4.06-3.47 4.65-2.92Q5.24-2.38 6.57-2.38L6.57-2.38Q7.42-2.38 7.92-2.75Q8.41-3.12 8.41-3.78ZM13.47-10.57L16.55-10.57L16.66-9.33Q17.78-10.76 19.68-10.76L19.68-10.76Q21.68-10.76 22.38-9.17L22.38-9.17Q23.46-10.76 25.49-10.76L25.49-10.76Q28.70-10.76 28.79-6.88L28.79-6.88L28.79 0L25.49 0L25.49-6.67Q25.49-7.48 25.21-7.85Q24.94-8.22 24.22-8.22L24.22-8.22Q23.24-8.22 22.76-7.35L22.76-7.35L22.77-7.22L22.77 0L19.47 0L19.47-6.65Q19.47-7.48 19.21-7.85Q18.95-8.22 18.20-8.22L18.20-8.22Q17.26-8.22 16.76-7.35L16.76-7.35L16.76 0L13.47 0L13.47-10.57ZM39.91 0L36.62 0Q36.45-0.32 36.31-0.95L36.31-0.95Q35.40 0.20 33.77 0.20L33.77 0.20Q32.28 0.20 31.23-0.71Q30.19-1.61 30.19-2.98L30.19-2.98Q30.19-4.70 31.46-5.58Q32.72-6.46 35.15-6.46L35.15-6.46L36.16-6.46L36.16-7.01Q36.16-8.47 34.90-8.47L34.90-8.47Q33.73-8.47 33.73-7.31L33.73-7.31L30.44-7.31Q30.44-8.85 31.74-9.80Q33.05-10.76 35.07-10.76Q37.09-10.76 38.26-9.78Q39.43-8.79 39.46-7.07L39.46-7.07L39.46-2.39Q39.48-0.94 39.91-0.17L39.91-0.17L39.91 0ZM34.56-2.15L34.56-2.15Q35.18-2.15 35.58-2.41Q35.99-2.68 36.16-3.01L36.16-3.01L36.16-4.70L35.21-4.70Q33.49-4.70 33.49-3.15L33.49-3.15Q33.49-2.71 33.79-2.43Q34.09-2.15 34.56-2.15ZM47.73-10.64L47.68-7.59L46.59-7.67Q45.04-7.67 44.60-6.69L44.60-6.69L44.60 0L41.31 0L41.31-10.57L44.39-10.57L44.50-9.21Q45.33-10.76 46.82-10.76L46.82-10.76Q47.34-10.76 47.73-10.64L47.73-10.64ZM49.89-13.19L53.18-13.19L53.18-10.57L54.92-10.57L54.92-8.28L53.18-8.28L53.18-3.45Q53.18-2.85 53.40-2.62Q53.61-2.38 54.25-2.38L54.25-2.38Q54.74-2.38 55.07-2.44L55.07-2.44L55.07-0.09Q54.18 0.20 53.21 0.20L53.21 0.20Q51.51 0.20 50.70-0.61Q49.89-1.41 49.89-3.04L49.89-3.04L49.89-8.28L48.54-8.28L48.54-10.57L49.89-10.57L49.89-13.19ZM59.06-14.22L61.88-3.87L64.72-14.22L68.54-14.22L63.76 0L60.01 0L55.26-14.22L59.06-14.22ZM74.11 0.20L74.11 0.20Q71.68 0.20 70.18-1.25Q68.67-2.71 68.67-5.03L68.67-5.03L68.67-5.30Q68.67-6.92 69.27-8.16Q69.87-9.40 71.03-10.08Q72.18-10.76 73.76-10.76L73.76-10.76Q75.99-10.76 77.28-9.38Q78.56-8.00 78.56-5.53L78.56-5.53L78.56-4.25L72.02-4.25Q72.20-3.36 72.79-2.85Q73.39-2.34 74.34-2.34L74.34-2.34Q75.90-2.34 76.78-3.44L76.78-3.44L78.28-1.66Q77.67-0.81 76.54-0.31Q75.41 0.20 74.11 0.20ZM73.74-8.22L73.74-8.22Q72.29-8.22 72.02-6.31L72.02-6.31L75.34-6.31L75.34-6.56Q75.36-7.35 74.94-7.79Q74.52-8.22 73.74-8.22ZM86.34-10.64L86.28-7.59L85.20-7.67Q83.64-7.67 83.20-6.69L83.20-6.69L83.20 0L79.91 0L79.91-10.57L83.00-10.57L83.11-9.21Q83.94-10.76 85.42-10.76L85.42-10.76Q85.95-10.76 86.34-10.64L86.34-10.64ZM93.00-2.97L93.00-2.97Q93.00-3.39 92.56-3.64Q92.12-3.90 90.89-4.17Q89.66-4.44 88.86-4.89Q88.06-5.33 87.64-5.97Q87.22-6.60 87.22-7.42L87.22-7.42Q87.22-8.88 88.42-9.82Q89.62-10.76 91.56-10.76L91.56-10.76Q93.65-10.76 94.92-9.81Q96.19-8.87 96.19-7.32L96.19-7.32L92.89-7.32Q92.89-8.59 91.55-8.59L91.55-8.59Q91.04-8.59 90.68-8.31Q90.33-8.02 90.33-7.59L90.33-7.59Q90.33-7.15 90.76-6.88Q91.19-6.60 92.13-6.43Q93.08-6.25 93.79-6.01L93.79-6.01Q96.17-5.19 96.17-3.07L96.17-3.07Q96.17-1.62 94.89-0.71Q93.60 0.20 91.56 0.20L91.56 0.20Q90.21 0.20 89.14-0.29Q88.08-0.78 87.48-1.62Q86.88-2.46 86.88-3.39L86.88-3.39L89.96-3.39Q89.98-2.66 90.45-2.32Q90.92-1.98 91.65-1.98L91.65-1.98Q92.32-1.98 92.66-2.26Q93.00-2.53 93.00-2.97ZM102.82 0.20L102.82 0.20Q100.39 0.20 98.89-1.25Q97.38-2.71 97.38-5.03L97.38-5.03L97.38-5.30Q97.38-6.92 97.98-8.16Q98.58-9.40 99.74-10.08Q100.89-10.76 102.47-10.76L102.47-10.76Q104.70-10.76 105.99-9.38Q107.28-8.00 107.28-5.53L107.28-5.53L107.28-4.25L100.73-4.25Q100.91-3.36 101.50-2.85Q102.10-2.34 103.05-2.34L103.05-2.34Q104.61-2.34 105.49-3.44L105.49-3.44L106.99-1.66Q106.38-0.81 105.25-0.31Q104.12 0.20 102.82 0.20ZM102.45-8.22L102.45-8.22Q101.01-8.22 100.73-6.31L100.73-6.31L104.05-6.31L104.05-6.56Q104.07-7.35 103.65-7.79Q103.23-8.22 102.45-8.22Z"></path></g></g></svg>